<svg xmlns="http://www.w3.org/2000/svg" width="1254" height="836" viewBox="0 0 1254 836">
<g>
<path d="M 709.00 526.55 C702.07,527.73 686.62,527.97 625.50,527.85 C584.25,527.77 549.15,527.53 547.50,527.32 C541.21,526.53 521.58,521.61 523.25,521.24 C526.21,520.58 525.19,518.26 521.64,517.59 C519.79,517.24 517.50,516.10 516.54,515.05 C515.59,513.99 514.07,513.37 513.16,513.66 C512.20,513.97 512.54,513.34 513.97,512.17 C515.74,510.73 516.92,510.42 518.15,511.08 C520.65,512.42 525.94,512.20 527.44,510.70 C528.15,509.99 529.05,508.42 529.44,507.20 C529.82,505.99 530.56,505.00 531.08,505.00 C532.44,505.00 538.55,498.92 538.25,497.87 C538.11,497.38 539.78,497.26 541.96,497.61 C545.84,498.23 545.95,498.16 547.52,494.25 C549.38,489.58 553.25,485.91 556.68,485.53 C558.01,485.38 559.96,484.42 561.00,483.38 C564.17,480.25 565.86,479.00 566.96,479.00 C567.53,479.00 568.00,477.41 568.00,475.47 C568.00,472.77 568.51,471.75 570.14,471.14 C571.59,470.61 572.40,469.31 572.64,467.15 C573.12,462.75 575.63,459.25 578.82,458.50 C580.31,458.16 582.40,456.46 583.52,454.69 C584.62,452.94 586.55,451.35 587.79,451.18 C590.70,450.76 593.37,446.73 592.52,444.05 C592.16,442.92 592.30,442.00 592.82,442.00 C593.35,442.00 594.06,440.88 594.41,439.52 C594.82,437.85 595.94,436.84 597.77,436.46 C602.19,435.53 603.36,434.54 605.88,429.64 C607.19,427.09 608.87,425.00 609.61,425.00 C610.35,425.00 611.72,423.76 612.66,422.25 C615.30,418.00 618.19,416.05 621.84,416.02 C624.34,416.01 625.32,415.49 625.71,414.00 C626.00,412.90 626.79,412.00 627.46,412.00 C628.14,412.00 629.49,411.12 630.46,410.04 C632.21,408.12 632.10,408.08 623.87,407.75 C619.27,407.56 634.27,407.32 657.21,407.20 C697.06,407.01 699.18,406.90 704.62,404.87 C712.47,401.93 720.05,394.39 722.87,386.71 C724.93,381.11 725.01,379.20 725.23,328.21 C725.42,282.25 725.52,279.22 726.00,304.50 L 726.55 333.50 L 726.94 311.00 C727.20,296.22 727.56,290.56 728.00,294.50 C728.66,300.49 728.66,300.49 728.99,296.00 C729.28,292.06 729.37,291.91 729.72,294.75 C730.10,297.82 732.00,299.46 732.00,296.72 C732.00,296.02 733.39,293.92 735.09,292.06 C737.49,289.44 738.06,288.06 737.64,285.93 C737.26,284.05 737.55,283.00 738.56,282.62 C740.25,281.97 741.92,278.24 743.08,272.50 C745.11,262.49 746.27,260.00 748.93,260.00 C749.52,260.00 750.00,259.31 750.00,258.46 C750.00,257.28 750.42,257.16 751.85,257.92 C753.45,258.77 754.05,258.14 756.35,253.16 C757.81,250.00 759.00,246.61 759.00,245.63 C759.00,244.66 760.80,241.72 763.00,239.12 C765.20,236.51 767.00,233.84 767.00,233.19 C767.00,232.53 767.67,232.00 768.48,232.00 C769.84,232.00 770.41,230.67 771.21,225.70 C771.37,224.71 771.85,223.93 772.29,223.98 C774.80,224.27 783.01,208.49 782.29,204.74 C781.92,202.83 782.30,202.50 784.84,202.50 C786.47,202.50 787.64,202.77 787.44,203.10 C786.79,204.15 791.79,208.24 793.15,207.78 C793.98,207.51 792.67,205.38 789.47,201.83 C786.74,198.79 787.57,199.49 791.32,203.40 C801.24,213.72 807.11,223.11 814.35,240.20 C815.22,242.24 816.95,247.86 818.21,252.70 L 820.50 261.50 L 820.50 342.50 C820.50,423.12 820.49,423.54 818.27,432.00 C808.80,468.03 785.57,496.65 752.19,513.42 C738.85,520.11 728.54,523.25 709.00,526.55 ZM 701.67 386.75 C698.42,388.97 697.97,389.00 668.94,388.81 C650.98,388.70 642.81,388.38 648.00,388.00 L 656.50 387.37 L 649.50 387.11 C645.65,386.96 643.04,386.62 643.69,386.36 C644.35,386.09 644.66,385.27 644.38,384.54 C644.09,383.80 644.28,382.94 644.80,382.63 C645.31,382.31 645.51,380.91 645.25,379.52 C644.83,377.34 645.20,376.91 647.90,376.37 C649.78,375.99 651.68,374.69 652.63,373.12 C653.50,371.68 656.87,368.30 660.11,365.60 C663.35,362.91 666.00,360.35 666.00,359.93 C666.00,358.40 671.20,353.01 672.13,353.58 C673.22,354.25 686.00,341.57 686.00,339.82 C686.00,339.18 686.62,337.95 687.37,337.08 C688.12,336.21 689.17,334.15 689.70,332.50 C690.23,330.86 691.30,329.48 692.08,329.45 C694.58,329.34 697.00,327.83 697.00,326.37 C697.00,324.17 702.22,316.82 703.14,317.74 C705.16,319.76 706.89,334.99 707.39,355.31 C708.00,379.88 707.47,382.80 701.67,386.75 ZM 615.00 421.00 C615.00,421.55 615.45,422.00 616.00,422.00 C616.55,422.00 617.00,421.55 617.00,421.00 C617.00,420.45 616.55,420.00 616.00,420.00 C615.45,420.00 615.00,420.45 615.00,421.00 ZM 794.98 210.48 C796.76,212.63 797.25,212.37 795.80,210.05 C795.12,208.97 794.38,208.28 794.15,208.52 C793.91,208.76 794.28,209.64 794.98,210.48 Z" fill="rgb(168,68,153)"/>
<path d="M 696.76 406.54 C691.08,407.01 680.70,407.09 657.21,407.20 C634.27,407.32 619.27,407.56 623.87,407.75 C632.10,408.08 632.21,408.12 630.46,410.04 C629.49,411.12 628.14,412.00 627.46,412.00 C626.79,412.00 626.00,412.90 625.71,414.00 C625.32,415.49 624.34,416.01 621.84,416.02 C618.19,416.05 615.30,418.00 612.66,422.25 C611.72,423.76 610.35,425.00 609.61,425.00 C608.87,425.00 607.19,427.09 605.88,429.64 C603.36,434.54 602.19,435.53 597.77,436.46 C595.94,436.84 594.82,437.85 594.41,439.52 C594.06,440.88 593.35,442.00 592.82,442.00 C592.30,442.00 592.16,442.92 592.52,444.05 C593.37,446.73 590.70,450.76 587.79,451.18 C586.55,451.35 584.62,452.94 583.52,454.69 C582.40,456.46 580.31,458.16 578.82,458.50 C575.63,459.25 573.12,462.75 572.64,467.15 C572.40,469.31 571.59,470.61 570.14,471.14 C568.51,471.75 568.00,472.77 568.00,475.47 C568.00,477.41 567.53,479.00 566.96,479.00 C565.86,479.00 564.17,480.25 561.00,483.38 C559.96,484.42 558.01,485.38 556.68,485.53 C553.25,485.91 549.38,489.58 547.52,494.25 C545.95,498.16 545.84,498.23 541.96,497.61 C539.78,497.26 538.11,497.38 538.25,497.87 C538.55,498.92 532.44,505.00 531.08,505.00 C530.56,505.00 529.82,505.99 529.44,507.20 C529.05,508.42 528.15,509.99 527.44,510.70 C525.94,512.20 520.65,512.42 518.15,511.08 C516.92,510.42 515.74,510.73 513.97,512.17 C512.54,513.34 512.20,513.97 513.16,513.66 C514.07,513.37 515.59,513.99 516.54,515.05 C517.50,516.10 519.79,517.24 521.64,517.59 C525.19,518.26 526.21,520.58 523.25,521.24 C522.05,521.51 531.94,524.15 539.90,525.89 C532.65,524.49 523.25,522.55 520.50,521.83 C513.70,520.06 495.86,511.65 488.28,506.63 C477.12,499.25 463.30,486.08 454.20,474.14 C447.77,465.72 439.45,447.89 435.87,434.89 L 432.73 423.50 L 432.29 318.50 L 432.97 358.00 C433.42,384.13 434.08,399.30 434.92,402.80 C436.18,408.08 436.20,408.10 438.56,406.55 C439.86,405.70 441.98,405.00 443.26,405.00 C444.55,405.00 446.05,404.55 446.59,404.01 C447.24,403.36 448.76,403.36 451.04,404.03 C454.15,404.93 454.71,404.78 456.52,402.53 C458.58,399.99 460.49,399.62 469.44,400.02 C472.06,400.14 473.77,399.66 474.55,398.60 C475.19,397.72 475.99,397.00 476.31,397.00 C476.64,397.00 478.07,395.84 479.50,394.41 C481.62,392.29 482.35,392.05 483.58,393.06 C484.73,394.02 485.57,394.04 487.28,393.13 C488.50,392.49 490.50,391.77 491.72,391.54 C492.95,391.31 495.87,389.27 498.22,387.01 C500.58,384.75 505.42,381.28 509.00,379.30 C512.58,377.32 516.31,374.87 517.29,373.85 C519.68,371.38 520.98,371.52 521.08,374.25 C521.12,375.49 521.38,375.96 521.64,375.31 C521.91,374.65 522.72,374.34 523.43,374.61 C525.26,375.32 525.97,371.90 525.99,362.25 C525.99,357.49 526.42,354.00 526.99,354.00 C527.61,354.00 528.08,340.59 528.25,317.25 C528.29,311.29 528.35,308.47 528.40,308.47 C528.53,308.47 528.67,324.63 528.76,352.60 L 529.00 424.70 L 531.28 428.10 C532.75,430.28 535.07,432.02 537.76,432.96 C541.68,434.33 542.22,434.28 546.23,432.23 C548.58,431.02 553.20,428.03 556.50,425.58 C559.80,423.14 566.93,418.07 572.34,414.32 L 582.17 407.50 L 641.84 407.00 ZM 800.61 214.46 C797.87,210.63 794.85,207.07 791.32,203.40 C787.57,199.49 786.74,198.79 789.47,201.83 C792.67,205.38 793.98,207.51 793.15,207.78 C791.79,208.24 786.79,204.15 787.44,203.10 C787.64,202.77 786.47,202.50 784.84,202.50 C782.30,202.50 781.92,202.83 782.29,204.74 C783.01,208.49 774.80,224.27 772.29,223.98 C771.85,223.93 771.37,224.71 771.21,225.70 C770.41,230.67 769.84,232.00 768.48,232.00 C767.67,232.00 767.00,232.53 767.00,233.19 C767.00,233.84 765.20,236.51 763.00,239.12 C760.80,241.72 759.00,244.66 759.00,245.63 C759.00,246.61 757.81,250.00 756.35,253.16 C754.05,258.14 753.45,258.77 751.85,257.92 C750.42,257.16 750.00,257.28 750.00,258.46 C750.00,259.31 749.52,260.00 748.93,260.00 C746.27,260.00 745.11,262.49 743.08,272.50 C741.92,278.24 740.25,281.97 738.56,282.62 C737.55,283.00 737.26,284.05 737.64,285.93 C738.06,288.06 737.49,289.44 735.09,292.06 C733.39,293.92 732.00,296.02 732.00,296.72 C732.00,299.46 730.10,297.82 729.72,294.75 C729.37,291.91 729.28,292.06 728.99,296.00 C728.66,300.49 728.66,300.49 728.00,294.50 C727.56,290.56 727.20,296.22 726.94,311.00 L 726.55 333.50 L 726.00 304.50 C725.52,279.22 725.42,282.25 725.23,328.21 C725.01,379.20 724.93,381.11 722.87,386.71 C722.27,388.34 721.46,389.97 720.47,391.54 C721.43,389.97 722.23,388.33 722.86,386.63 C724.95,381.07 725.00,379.59 725.00,327.93 C725.00,283.19 724.77,274.38 723.51,271.36 C722.69,269.40 722.23,267.43 722.50,267.00 C722.77,266.56 722.32,265.95 721.49,265.64 C720.67,265.32 720.00,264.51 720.00,263.84 C720.00,261.72 711.73,254.78 706.00,252.09 L 700.50 249.50 L 643.50 248.98 C612.15,248.69 594.91,248.36 605.19,248.23 C622.67,248.01 635.95,246.37 638.24,244.14 C638.65,243.74 638.48,242.08 637.86,240.44 C636.88,237.84 637.07,236.99 639.37,233.60 C640.82,231.46 642.00,229.11 642.00,228.36 C642.00,227.61 642.72,227.00 643.59,227.00 C644.47,227.00 645.42,226.10 645.71,225.00 C646.00,223.90 646.66,223.00 647.18,223.00 C647.69,223.00 647.84,222.55 647.50,222.00 C647.16,221.45 647.55,221.00 648.37,221.00 C649.19,221.00 650.15,220.10 650.50,219.00 C650.85,217.90 651.55,217.00 652.07,217.00 C652.58,217.00 653.00,215.85 653.00,214.44 C653.00,213.03 653.40,212.13 653.88,212.43 C654.37,212.73 654.69,211.53 654.60,209.77 C654.48,207.27 655.26,205.77 658.18,202.94 C661.51,199.71 661.86,198.91 661.34,195.70 C660.78,192.28 660.96,191.99 664.61,190.29 C669.78,187.89 672.00,185.93 672.00,183.75 C672.00,182.75 672.67,181.68 673.50,181.36 C674.33,181.05 675.00,180.39 675.00,179.91 C675.00,179.43 677.24,176.66 679.98,173.76 C682.72,170.87 684.97,167.81 684.98,166.96 C684.99,165.87 683.30,165.08 679.25,164.30 C671.72,162.84 676.88,163.00 609.00,162.12 L 549.50 161.35 L 631.50 161.51 C711.35,161.66 713.75,161.72 723.00,163.80 C747.00,169.21 763.21,177.43 783.32,194.41 C788.63,198.89 795.09,206.51 800.61,214.46 ZM 561.11 402.32 C554.72,406.88 548.94,410.95 548.25,411.36 C547.26,411.96 547.04,405.23 547.19,378.81 C547.29,360.49 547.63,349.33 547.94,354.00 C548.25,358.67 548.79,361.60 549.13,360.50 C549.61,358.99 549.80,359.30 549.88,361.73 L 550.00 364.97 L 553.75 362.88 C557.91,360.56 561.00,357.64 561.00,356.03 C561.00,355.46 562.80,354.26 564.99,353.39 C567.19,352.51 568.77,351.43 568.50,351.00 C568.24,350.57 569.87,348.37 572.13,346.11 C574.39,343.85 575.79,342.00 575.25,342.00 C573.69,342.00 569.00,334.27 569.04,331.77 C569.07,329.85 569.30,330.00 570.49,332.76 C571.31,334.64 573.09,336.48 574.70,337.12 C576.53,337.84 594.35,338.40 626.15,338.75 L 674.79 339.29 L 677.96 337.03 C683.90,332.80 684.39,325.29 678.92,322.46 C676.40,321.16 668.90,320.99 625.10,321.22 C576.67,321.49 574.11,321.59 572.10,323.40 C570.95,324.45 569.96,326.25 569.92,327.40 C569.88,328.56 569.61,328.92 569.32,328.21 C569.04,327.50 569.07,325.84 569.40,324.53 C570.23,321.22 574.14,320.22 589.50,319.42 C604.47,318.65 607.32,317.47 603.50,313.64 C602.16,312.30 602.23,312.06 604.18,311.44 C605.38,311.06 607.72,309.92 609.38,308.92 L 612.39 307.08 L 609.95 306.10 C607.68,305.20 607.80,305.11 611.50,304.85 C613.70,304.69 606.95,304.29 596.50,303.96 C582.12,303.51 586.98,303.36 616.50,303.34 C659.09,303.32 661.67,303.01 664.15,297.57 C665.73,294.09 664.12,288.87 660.97,287.28 C659.14,286.35 648.07,285.98 618.00,285.85 C590.45,285.72 581.34,285.45 589.50,284.98 C615.77,283.48 625.60,282.68 627.78,281.87 C629.92,281.08 629.97,280.88 628.53,278.69 C627.11,276.52 627.16,276.20 629.25,274.30 C630.49,273.18 632.85,271.82 634.50,271.28 C637.47,270.32 637.45,270.29 631.50,268.50 C626.47,266.99 620.08,266.59 592.00,266.02 C562.89,265.44 567.55,265.33 627.50,265.18 C691.42,265.02 696.75,265.13 699.93,266.75 C701.81,267.71 704.29,269.77 705.43,271.32 C707.45,274.08 707.51,275.36 707.78,325.32 L 707.80 327.95 C707.93,351.16 708.00,364.50 707.51,372.52 C707.66,368.40 707.58,362.88 707.39,355.31 C706.89,334.99 705.16,319.76 703.14,317.74 C702.22,316.82 697.00,324.17 697.00,326.37 C697.00,327.83 694.58,329.34 692.08,329.45 C691.30,329.48 690.23,330.86 689.70,332.50 C689.17,334.15 688.12,336.21 687.37,337.08 C686.62,337.95 686.00,339.18 686.00,339.82 C686.00,341.57 673.22,354.25 672.13,353.58 C671.20,353.01 666.00,358.40 666.00,359.93 C666.00,360.35 663.35,362.91 660.11,365.60 C656.87,368.30 653.50,371.68 652.63,373.12 C651.68,374.69 649.78,375.99 647.90,376.37 C645.20,376.91 644.83,377.34 645.25,379.52 C645.51,380.91 645.31,382.31 644.80,382.63 C644.28,382.94 644.09,383.80 644.38,384.54 C644.66,385.27 644.35,386.09 643.69,386.36 C643.04,386.62 645.65,386.96 649.50,387.11 L 656.50 387.37 L 648.00 388.00 C642.81,388.38 650.98,388.70 668.94,388.81 C693.55,388.97 697.62,388.97 700.27,387.62 L 696.60 390.00 L 639.05 390.02 C633.52,390.02 628.49,390.02 623.93,390.01 C590.49,389.97 581.38,389.96 574.02,393.54 C570.27,395.37 566.96,398.14 561.11,402.32 ZM 573.86 371.48 C578.01,373.74 635.82,373.65 640.61,371.38 C646.01,368.82 646.89,362.30 642.39,358.25 C639.91,356.01 639.67,356.00 607.67,356.00 C572.75,356.00 572.05,356.10 569.98,361.56 C568.72,364.86 570.62,369.73 573.86,371.48 ZM 554.26 576.70 L 550.02 577.11 L 549.76 615.81 C549.62,637.09 549.25,653.60 548.94,652.50 C548.63,651.40 548.40,633.85 548.44,613.50 L 548.50 576.50 L 553.50 576.39 C557.96,576.30 558.05,576.33 554.26,576.70 ZM 562.72 359.04 C563.00,360.12 563.60,361.00 564.05,361.00 C565.20,361.00 566.26,357.23 565.48,355.96 C564.41,354.24 562.13,356.79 562.72,359.04 ZM 615.00 421.00 C615.00,420.45 615.45,420.00 616.00,420.00 C616.55,420.00 617.00,420.45 617.00,421.00 C617.00,421.55 616.55,422.00 616.00,422.00 C615.45,422.00 615.00,421.55 615.00,421.00 ZM 794.98 210.48 C794.28,209.64 793.91,208.76 794.15,208.52 C794.38,208.28 795.12,208.97 795.80,210.05 C797.25,212.37 796.76,212.63 794.98,210.48 ZM 547.95 527.35 C552.47,527.55 586.19,527.77 625.50,527.85 C665.37,527.92 685.80,527.85 697.12,527.46 C685.79,527.85 665.34,527.93 625.50,527.86 C584.25,527.79 549.38,527.56 548.00,527.36 ZM 812.39 235.67 C809.81,229.92 807.36,225.09 804.76,220.76 C806.97,224.35 808.88,227.84 810.30,231.00 C811.10,232.76 811.78,234.30 812.39,235.67 ZM 815.52 243.45 C816.45,246.14 817.19,248.78 818.21,252.70 C817.39,249.55 816.37,246.06 815.52,243.45 ZM 702.64 386.06 C703.95,385.07 704.95,384.06 705.68,382.67 C705.26,383.54 704.77,384.21 704.18,384.80 C703.72,385.26 703.21,385.66 702.64,386.06 ZM 709.53 402.43 C708.29,403.20 707.02,403.87 705.73,404.42 L 707.14 403.73 C707.96,403.33 708.75,402.89 709.53,402.43 Z" fill="rgb(207,100,136)"/>
<path d="M 557.09 161.45 L 609.00 162.12 C676.88,163.00 671.72,162.84 679.25,164.30 C683.30,165.08 684.99,165.87 684.98,166.96 C684.97,167.81 682.72,170.87 679.98,173.76 C677.24,176.66 675.00,179.43 675.00,179.91 C675.00,180.39 674.33,181.05 673.50,181.36 C672.67,181.68 672.00,182.75 672.00,183.75 C672.00,185.93 669.78,187.89 664.61,190.29 C660.96,191.99 660.78,192.28 661.34,195.70 C661.86,198.91 661.51,199.71 658.18,202.94 C655.26,205.77 654.48,207.27 654.60,209.77 C654.69,211.53 654.37,212.73 653.88,212.43 C653.40,212.13 653.00,213.03 653.00,214.44 C653.00,215.85 652.58,217.00 652.07,217.00 C651.55,217.00 650.85,217.90 650.50,219.00 C650.15,220.10 649.19,221.00 648.37,221.00 C647.55,221.00 647.16,221.45 647.50,222.00 C647.84,222.55 647.69,223.00 647.18,223.00 C646.66,223.00 646.00,223.90 645.71,225.00 C645.42,226.10 644.47,227.00 643.59,227.00 C642.72,227.00 642.00,227.61 642.00,228.36 C642.00,229.11 640.82,231.46 639.37,233.60 C637.07,236.99 636.88,237.84 637.86,240.44 C638.48,242.08 638.65,243.74 638.24,244.14 C635.95,246.37 622.67,248.01 605.19,248.23 C594.91,248.36 612.15,248.69 643.50,248.98 L 700.50 249.50 L 629.07 249.23 C566.36,248.99 556.98,249.15 552.20,250.54 C545.24,252.57 540.21,255.76 535.70,261.04 C534.61,262.31 533.69,263.31 532.93,264.41 C528.99,270.07 528.99,278.47 529.00,341.42 C529.00,344.00 529.00,346.67 529.00,349.43 C529.01,418.28 529.04,424.07 530.67,427.19 L 529.00 424.70 L 528.76 352.60 C528.67,324.63 528.53,308.47 528.40,308.47 C528.35,308.47 528.29,311.29 528.25,317.25 C528.08,340.59 527.61,354.00 526.99,354.00 C526.42,354.00 525.99,357.49 525.99,362.25 C525.97,371.90 525.26,375.32 523.43,374.61 C522.72,374.34 521.91,374.65 521.64,375.31 C521.38,375.96 521.12,375.49 521.08,374.25 C520.98,371.52 519.68,371.38 517.29,373.85 C516.31,374.87 512.58,377.32 509.00,379.30 C505.42,381.28 500.58,384.75 498.22,387.01 C495.87,389.27 492.95,391.31 491.72,391.54 C490.50,391.77 488.50,392.49 487.28,393.13 C485.57,394.04 484.73,394.02 483.58,393.06 C482.35,392.05 481.62,392.29 479.50,394.41 C478.07,395.84 476.64,397.00 476.31,397.00 C475.99,397.00 475.19,397.72 474.55,398.60 C473.77,399.66 472.06,400.14 469.44,400.02 C460.49,399.62 458.58,399.99 456.52,402.53 C454.71,404.78 454.15,404.93 451.04,404.03 C448.76,403.36 447.24,403.36 446.59,404.01 C446.05,404.55 444.55,405.00 443.26,405.00 C441.98,405.00 439.86,405.70 438.56,406.55 C436.20,408.10 436.18,408.08 434.92,402.80 C434.08,399.30 433.42,384.13 432.97,358.00 L 432.29 318.50 L 432.73 423.50 L 435.87 434.89 C437.23,439.84 439.28,445.48 441.65,451.04 C439.27,445.48 437.21,439.83 435.84,434.89 L 432.67 423.50 L 432.29 354.24 C431.89,281.10 432.48,264.79 435.97,251.11 C440.44,233.61 450.47,216.14 464.74,200.97 C486.46,177.90 513.16,164.92 545.06,161.94 C547.22,161.74 551.25,161.57 557.09,161.45 ZM 607.09 303.24 C610.92,303.27 614.74,303.30 618.39,303.34 C617.77,303.34 617.14,303.34 616.50,303.34 C586.98,303.36 582.12,303.51 596.50,303.96 C606.95,304.29 613.70,304.69 611.50,304.85 C607.80,305.11 607.68,305.20 609.95,306.10 L 612.39 307.08 L 609.38 308.92 C607.72,309.92 605.38,311.06 604.18,311.44 C602.23,312.06 602.16,312.30 603.50,313.64 C607.32,317.47 604.47,318.65 589.50,319.42 C574.14,320.22 570.23,321.22 569.40,324.53 C569.07,325.84 569.04,327.50 569.32,328.21 C569.53,328.71 569.72,328.68 569.83,328.20 C569.66,329.57 569.82,331.00 570.32,332.37 C569.27,329.99 569.07,329.94 569.04,331.77 C569.00,334.27 573.69,342.00 575.25,342.00 C575.79,342.00 574.39,343.85 572.13,346.11 C569.87,348.37 568.24,350.57 568.50,351.00 C568.77,351.43 567.19,352.51 564.99,353.39 C562.80,354.26 561.00,355.46 561.00,356.03 C561.00,357.64 557.91,360.56 553.75,362.88 L 550.00 364.97 L 549.88 361.73 C549.80,359.30 549.61,358.99 549.13,360.50 C548.79,361.60 548.25,358.67 547.94,354.00 C547.63,349.33 547.29,360.49 547.19,378.81 C547.17,382.60 547.15,385.98 547.15,389.00 C547.05,378.65 547.01,364.03 547.02,343.80 C547.02,277.91 547.08,275.39 548.96,272.30 C549.75,271.01 550.24,269.97 550.96,269.12 C553.01,266.71 556.92,265.89 574.70,265.56 C575.47,265.67 581.56,265.81 592.00,266.02 C620.08,266.59 626.47,266.99 631.50,268.50 C637.45,270.29 637.47,270.32 634.50,271.28 C632.85,271.82 630.49,273.18 629.25,274.30 C627.16,276.20 627.11,276.52 628.53,278.69 C629.97,280.88 629.92,281.08 627.78,281.87 C625.60,282.68 615.77,283.48 589.50,284.98 C581.34,285.45 590.45,285.72 618.00,285.85 C647.81,285.98 658.94,286.34 660.92,287.25 C656.48,285.58 577.30,285.45 573.60,287.14 C568.68,289.38 568.44,297.80 573.18,301.74 C574.28,302.65 583.15,303.04 607.09,303.24 ZM 713.08 162.33 C703.77,161.67 685.05,161.61 631.50,161.51 L 561.19 161.37 C576.47,161.13 601.31,161.09 635.06,161.26 C685.75,161.53 703.88,161.65 713.08,162.33 ZM 562.72 359.04 C562.13,356.79 564.41,354.24 565.48,355.96 C566.26,357.23 565.20,361.00 564.05,361.00 C563.60,361.00 563.00,360.12 562.72,359.04 ZM 627.15 338.76 C630.38,338.79 633.63,338.81 636.85,338.82 C673.92,338.99 675.22,338.96 678.05,336.97 C678.02,336.99 677.99,337.01 677.96,337.03 L 674.79 339.29 ZM 657.72 302.13 C660.52,301.18 662.69,299.88 663.65,298.41 C664.56,297.02 664.88,295.23 664.71,293.48 C664.87,294.90 664.71,296.35 664.15,297.57 C663.08,299.91 662.00,301.30 657.72,302.13 ZM 719.92 263.43 C718.42,260.86 713.95,256.88 709.59,254.10 C714.30,257.09 719.24,261.46 719.92,263.43 ZM 569.90 327.77 C569.91,327.66 569.92,327.54 569.92,327.40 C569.96,326.25 570.95,324.45 572.10,323.40 C572.41,323.13 572.73,322.89 573.22,322.69 C572.72,322.91 572.42,323.18 572.11,323.50 C570.92,324.72 570.18,326.20 569.90,327.77 ZM 673.45 265.15 C694.82,265.23 697.79,265.64 699.93,266.74 C701.55,267.57 703.60,269.20 704.87,270.63 C703.60,269.21 701.55,267.58 699.93,266.75 C697.79,265.66 694.68,265.25 673.45,265.15 ZM 722.15 266.01 C722.11,266.00 722.07,266.00 722.03,266.00 C721.68,266.00 721.28,265.74 720.93,265.33 C721.11,265.46 721.30,265.56 721.49,265.64 C721.75,265.74 721.97,265.86 722.15,266.01 ZM 554.27 427.18 C554.99,426.67 555.74,426.13 556.50,425.57 C559.80,423.13 566.93,418.07 572.34,414.32 C566.93,418.07 559.80,423.14 556.50,425.58 C555.80,426.10 555.05,426.64 554.27,427.18 ZM 682.63 329.98 C683.08,326.94 681.87,323.98 678.92,322.46 C681.90,324.00 683.11,326.94 682.63,329.98 ZM 574.27 336.92 C574.89,337.14 575.69,337.31 576.77,337.45 C575.69,337.34 574.99,337.23 574.70,337.12 C574.56,337.06 574.41,336.99 574.27,336.92 ZM 542.43 433.81 C543.01,433.67 543.68,433.44 544.44,433.11 C543.66,433.47 543.03,433.70 542.43,433.81 Z" fill="rgb(243,122,94)"/>
<path d="M 0.00 418.00 L 0.00 0.00 L 627.00 0.00 L 1254.00 0.00 L 1254.00 418.00 L 1254.00 836.00 L 627.00 836.00 L 0.00 836.00 L 0.00 418.00 ZM 554.26 576.70 C558.05,576.33 557.96,576.30 553.50,576.39 L 548.50 576.50 L 548.44 613.50 C548.40,633.85 548.63,651.40 548.94,652.50 C549.25,653.60 549.62,637.09 549.76,615.81 L 550.02 577.11 L 554.26 576.70 ZM 709.00 526.55 C728.54,523.25 738.85,520.11 752.19,513.42 C785.57,496.65 808.80,468.03 818.27,432.00 C820.49,423.54 820.50,423.12 820.50,342.50 L 820.50 261.50 L 818.21 252.70 C815.94,243.98 815.08,241.61 810.30,231.00 C804.91,219.02 792.44,202.10 783.32,194.41 C763.21,177.43 746.98,169.20 723.00,163.81 C713.83,161.75 710.74,161.66 635.06,161.26 C583.44,161.00 552.67,161.23 545.06,161.94 C513.16,164.92 486.46,177.90 464.74,200.97 C450.47,216.14 440.44,233.61 435.97,251.11 C432.48,264.79 431.89,281.10 432.29,354.24 L 432.67 423.50 L 435.84 434.89 C439.45,447.89 447.82,465.78 454.20,474.14 C463.30,486.08 477.12,499.25 488.28,506.63 C495.86,511.65 513.70,520.06 520.50,521.83 C524.60,522.90 543.52,526.70 548.00,527.36 C549.38,527.56 584.25,527.79 625.50,527.86 C686.58,527.97 702.08,527.73 709.00,526.55 ZM 536.27 432.52 C534.49,431.75 532.13,429.63 531.02,427.81 C529.05,424.57 529.01,422.93 529.00,349.43 C529.00,266.01 528.76,269.14 535.70,261.04 C540.21,255.76 545.24,252.57 552.20,250.54 C556.98,249.15 566.36,248.99 629.07,249.23 L 700.50 249.50 L 706.00 252.09 C711.67,254.75 719.22,261.17 720.31,264.25 C720.66,265.21 721.43,266.00 722.03,266.00 C722.63,266.00 722.87,266.40 722.57,266.89 C722.26,267.39 722.69,269.40 723.51,271.36 C724.77,274.38 725.00,283.19 725.00,327.93 C725.00,379.59 724.95,381.07 722.86,386.63 C720.15,393.88 714.35,400.19 707.14,403.73 L 701.50 406.50 L 641.84 407.00 L 582.17 407.50 L 572.34 414.32 C566.93,418.07 559.80,423.13 556.50,425.57 C549.18,430.97 543.68,434.01 541.29,433.96 C540.31,433.94 538.05,433.29 536.27,432.52 ZM 561.11 402.32 C579.99,388.84 572.31,390.05 639.05,390.02 L 696.60 390.00 L 700.80 387.27 C708.21,382.47 708.10,383.44 707.78,325.32 C707.51,275.36 707.45,274.08 705.43,271.32 C704.29,269.77 701.81,267.71 699.93,266.74 C696.74,265.10 691.70,264.99 626.46,265.24 C548.52,265.53 553.35,265.09 548.96,272.30 C547.08,275.39 547.02,277.91 547.02,343.80 C547.01,397.97 547.27,411.95 548.26,411.36 C548.94,410.95 554.72,406.88 561.11,402.32 ZM 573.86 371.48 C570.62,369.73 568.72,364.86 569.98,361.56 C572.05,356.10 572.75,356.00 607.67,356.00 C639.67,356.00 639.91,356.01 642.39,358.25 C646.89,362.30 646.01,368.82 640.61,371.38 C635.82,373.65 578.01,373.74 573.86,371.48 ZM 586.16 338.07 C574.75,337.54 573.68,337.32 571.91,335.14 C568.97,331.51 569.06,326.63 572.11,323.50 C574.00,321.56 575.56,321.49 625.03,321.22 C668.89,320.99 676.40,321.16 678.92,322.46 C684.30,325.24 683.91,332.79 678.17,336.88 C675.25,338.96 674.44,339.00 636.85,338.82 C615.76,338.72 592.95,338.39 586.16,338.07 ZM 607.09 303.24 C583.15,303.04 574.28,302.65 573.18,301.74 C568.44,297.80 568.68,289.38 573.60,287.14 C577.33,285.44 657.60,285.58 661.00,287.29 C664.51,289.06 665.92,294.95 663.65,298.41 C661.49,301.71 653.30,304.12 645.44,303.77 C642.17,303.62 624.91,303.38 607.09,303.24 Z" fill="rgb(254,254,254)"/>
</g>
</svg>